<?xml version="1.0" encoding="utf-8"?>
<!-- Svg Vector Icons : http://www.onlinewebfonts.com/icon -->
<!DOCTYPE svg PUBLIC "-//W3C//DTD SVG 1.1//EN" "http://www.w3.org/Graphics/SVG/1.1/DTD/svg11.dtd">
<svg version="1.1" xmlns="http://www.w3.org/2000/svg" xmlns:xlink="http://www.w3.org/1999/xlink" x="0px" y="0px" viewBox="0 0 1000 1000" enable-background="new 0 0 1000 1000" xml:space="preserve">
<metadata> Svg Vector Icons : http://www.onlinewebfonts.com/icon </metadata>
<g><path d="M531,45.7c6.7-6.8,14.3-6.5,14.3-6.5s375.4,0,392,0c16.6,0,23.3,10.7,23.3,22.1c0,11.4,1.1,379.3,0.5,389.7c-0.7,10.4-1.6,13.4-7.3,19c-5.7,5.7-481.5,481-481.5,481s-14.9,18.8-33.7,0C419.7,932.3,59.1,573.6,47.4,561.4c-11.7-12.2-7.8-24.9,0-32.7C55.2,520.9,524.3,52.6,531,45.7z M551.8,9.9c-21.5,0-33.2,5.5-47.6,19.5c-14.4,14-453.5,454.2-478.9,479.7c-25.4,25.5-15.5,56.2,4,75.7c19.5,19.5,357.9,357,386.3,385.3c28.4,28.3,55.2,24.9,80.1,0c24.9-24.9,468.2-468.8,479.8-480.4c11.6-11.6,14.6-20.2,14.6-44.3c0-24.1,0-361.4,0-387.4c0-26-23.4-48.2-50.1-48.2C913.2,9.9,573.3,9.9,551.8,9.9z M872.5,231.1c0,59.5-46.5,107.7-103.8,107.7c-57.3,0-103.8-48.2-103.8-107.7c0-59.5,46.5-107.7,103.8-107.7C826,123.5,872.5,171.7,872.5,231.1z M768.6,155c-42,0-76.1,34.1-76.1,76.1c0,42,34.1,76.1,76.1,76.1s76.1-34.1,76.1-76.1C844.8,189.1,810.7,155,768.6,155z"/></g>
</svg>